<svg width="32" height="16" viewBox="0 0 32 16" fill="none" xmlns="http://www.w3.org/2000/svg">
<path d="M27.9989 0H19.9993C19.262 0 18.666 0.596 18.666 1.33333C18.666 2.07067 19.262 2.66667 19.9993 2.66667H27.4469L18.698 11.416C17.9461 12.168 16.7221 12.168 15.9688 11.416L12.5837 8.03067C10.7918 6.23867 7.87592 6.23867 6.08402 8.03067L0.39098 13.724C-0.130327 14.2453 -0.130327 15.088 0.39098 15.6093C0.650966 15.8693 0.992282 16 1.3336 16C1.67491 16 2.01623 15.8693 2.27621 15.6093L7.96925 9.916C8.69855 9.18667 9.96915 9.18667 10.6984 9.916L14.0836 13.3013C15.8755 15.0933 18.7914 15.0933 20.5833 13.3013L29.3335 4.552V12C29.3335 12.7373 29.9294 13.3333 30.6667 13.3333C31.404 13.3333 32 12.7373 32 12V4C32 1.79467 30.2041 0 27.9989 0Z" fill="#FF0000"/>
</svg>
