<svg width="21" height="21" viewBox="0 0 21 21" fill="none" xmlns="http://www.w3.org/2000/svg">
<path d="M2.69102 8.225C2.63268 8.19583 2.60352 8.14844 2.60352 8.08281C2.60352 8.01719 2.6181 7.95521 2.64727 7.89687C3.55143 6.64271 4.69622 5.67292 6.08164 4.9875C7.46706 4.30208 8.94727 3.95937 10.5223 3.95937C12.0973 3.95937 13.5811 4.29479 14.9738 4.96563C16.3665 5.63646 17.5223 6.59896 18.441 7.85313C18.4848 7.92604 18.503 7.98438 18.4957 8.02812C18.4884 8.07188 18.4629 8.11562 18.4191 8.15937C18.3754 8.20312 18.3207 8.225 18.2551 8.225C18.1895 8.225 18.1275 8.18854 18.0691 8.11562C17.2087 6.91979 16.1113 6.00104 14.777 5.35938C13.4426 4.71771 12.0243 4.39687 10.5223 4.39687C9.02018 4.39687 7.61289 4.72135 6.30039 5.37031C4.98789 6.01927 3.89414 6.93437 3.01914 8.11562C2.96081 8.18854 2.90612 8.23229 2.85508 8.24687C2.80404 8.26146 2.74935 8.25417 2.69102 8.225ZM13.1254 19.2281C11.6233 18.849 10.3874 18.0979 9.41758 16.975C8.44779 15.8521 7.96289 14.4885 7.96289 12.8844C7.96289 12.199 8.21445 11.6229 8.71758 11.1562C9.2207 10.6896 9.82227 10.4563 10.5223 10.4563C11.2223 10.4563 11.8238 10.6896 12.327 11.1562C12.8301 11.6229 13.0816 12.199 13.0816 12.8844C13.0816 13.4385 13.2967 13.9052 13.727 14.2844C14.1572 14.6635 14.6566 14.8531 15.2254 14.8531C15.7796 14.8531 16.2645 14.6635 16.6801 14.2844C17.0957 13.9052 17.3035 13.4385 17.3035 12.8844C17.3035 11.0906 16.6363 9.58854 15.302 8.37812C13.9676 7.16771 12.3743 6.5625 10.5223 6.5625C8.67018 6.5625 7.07695 7.16771 5.74258 8.37812C4.4082 9.58854 3.74102 11.0906 3.74102 12.8844C3.74102 13.2344 3.78112 13.6901 3.86133 14.2516C3.94154 14.813 4.11289 15.451 4.37539 16.1656C4.40456 16.2385 4.40456 16.2932 4.37539 16.3297C4.34622 16.3661 4.30977 16.399 4.26602 16.4281C4.20768 16.4573 4.1457 16.4646 4.08008 16.45C4.01445 16.4354 3.96706 16.3917 3.93789 16.3187C3.74831 15.7646 3.59883 15.1995 3.48945 14.6234C3.38008 14.0474 3.32539 13.4677 3.32539 12.8844C3.32539 11.0031 4.03997 9.39531 5.46914 8.06094C6.89831 6.72656 8.58268 6.05937 10.5223 6.05937C12.5056 6.05937 14.2082 6.71562 15.6301 8.02812C17.052 9.34062 17.7629 10.9594 17.7629 12.8844C17.7629 13.5552 17.515 14.124 17.0191 14.5906C16.5233 15.0573 15.9254 15.2906 15.2254 15.2906C14.5108 15.2906 13.8983 15.0573 13.3879 14.5906C12.8775 14.124 12.6223 13.5552 12.6223 12.8844C12.6223 12.3156 12.4145 11.8417 11.9988 11.4625C11.5832 11.0833 11.091 10.8938 10.5223 10.8938C9.95352 10.8938 9.45768 11.0833 9.03477 11.4625C8.61185 11.8417 8.40039 12.3156 8.40039 12.8844C8.40039 14.401 8.85977 15.6661 9.77852 16.6797C10.6973 17.6932 11.8421 18.4042 13.2129 18.8125C13.3004 18.8417 13.3551 18.8781 13.377 18.9219C13.3988 18.9656 13.4025 19.0167 13.3879 19.075C13.3733 19.1479 13.3441 19.199 13.3004 19.2281C13.2566 19.2573 13.1983 19.2573 13.1254 19.2281ZM5.40352 3.47812C5.3306 3.50729 5.27591 3.51094 5.23945 3.48906C5.203 3.46719 5.17018 3.43437 5.14102 3.39062C5.11185 3.36146 5.09727 3.31771 5.09727 3.25937C5.09727 3.20104 5.11914 3.15729 5.16289 3.12812C5.99414 2.67604 6.8655 2.33333 7.77695 2.1C8.68841 1.86667 9.60352 1.75 10.5223 1.75C11.4702 1.75 12.3999 1.86667 13.3113 2.1C14.2228 2.33333 15.0941 2.66146 15.9254 3.08438C15.9983 3.11354 16.0384 3.15729 16.0457 3.21562C16.053 3.27396 16.0421 3.325 16.0129 3.36875C15.9837 3.4125 15.9436 3.44896 15.8926 3.47812C15.8415 3.50729 15.7796 3.50729 15.7066 3.47812C14.9046 3.08438 14.066 2.77448 13.191 2.54844C12.316 2.3224 11.4264 2.20937 10.5223 2.20937C9.6181 2.20937 8.73581 2.3151 7.87539 2.52656C7.01497 2.73802 6.19102 3.05521 5.40352 3.47812ZM8.33477 18.9875C7.48893 18.1125 6.82904 17.1937 6.35508 16.2312C5.88112 15.2688 5.64414 14.1531 5.64414 12.8844C5.64414 11.5865 6.12175 10.4927 7.07695 9.60313C8.03216 8.71354 9.1806 8.26875 10.5223 8.26875C11.8639 8.26875 13.0197 8.71354 13.9895 9.60313C14.9592 10.4927 15.4441 11.5865 15.4441 12.8844C15.4441 12.9573 15.4259 13.012 15.3895 13.0484C15.353 13.0849 15.2983 13.1031 15.2254 13.1031C15.1525 13.1031 15.0941 13.0849 15.0504 13.0484C15.0066 13.012 14.9848 12.9573 14.9848 12.8844C14.9848 11.7031 14.5436 10.7115 13.6613 9.90938C12.779 9.10729 11.7327 8.70625 10.5223 8.70625C9.31185 8.70625 8.27279 9.10729 7.40508 9.90938C6.53737 10.7115 6.10352 11.7031 6.10352 12.8844C6.10352 14.124 6.31862 15.1812 6.74883 16.0562C7.17904 16.9312 7.81706 17.8062 8.66289 18.6812C8.72122 18.7396 8.74675 18.7943 8.73945 18.8453C8.73216 18.8964 8.70664 18.9438 8.66289 18.9875C8.63372 19.0167 8.58633 19.0422 8.5207 19.0641C8.45508 19.0859 8.3931 19.0604 8.33477 18.9875ZM15.0285 17.3906C13.7452 17.3906 12.6332 16.9641 11.6926 16.1109C10.752 15.2578 10.2816 14.1823 10.2816 12.8844C10.2816 12.8115 10.2999 12.7531 10.3363 12.7094C10.3728 12.6656 10.4275 12.6438 10.5004 12.6438C10.5733 12.6438 10.628 12.6656 10.6645 12.7094C10.7009 12.7531 10.7191 12.8115 10.7191 12.8844C10.7191 14.0656 11.153 15.0391 12.0207 15.8047C12.8884 16.5703 13.891 16.9531 15.0285 16.9531C15.1452 16.9531 15.2837 16.9458 15.4441 16.9312C15.6046 16.9167 15.7796 16.8948 15.9691 16.8656C16.0421 16.851 16.1004 16.862 16.1441 16.8984C16.1879 16.9349 16.2171 16.975 16.2316 17.0188C16.2462 17.0771 16.2426 17.1281 16.2207 17.1719C16.1988 17.2156 16.1514 17.2448 16.0785 17.2594C15.816 17.3323 15.5863 17.3724 15.3895 17.3797C15.1926 17.387 15.0723 17.3906 15.0285 17.3906Z" fill="#0085FF"/>
</svg>
