<svg width="18" height="19" viewBox="0 0 18 19" fill="none" xmlns="http://www.w3.org/2000/svg">
<path d="M1.74023 18.5293C1.48633 18.5293 1.26823 18.4382 1.08594 18.2559C0.910156 18.0801 0.822266 17.8652 0.822266 17.6113V2.28906C0.822266 1.86589 0.913411 1.52734 1.0957 1.27344C1.28451 1.01953 1.54818 0.817708 1.88672 0.667969C2.26432 0.492188 2.65169 0.361979 3.04883 0.277344C3.45247 0.186198 3.99935 0.140625 4.68945 0.140625C5.5293 0.140625 6.3138 0.228516 7.04297 0.404297C7.77865 0.573568 8.49479 0.76888 9.19141 0.990234C9.88802 1.21159 10.5944 1.4069 11.3105 1.57617C12.0267 1.74544 12.7852 1.83008 13.5859 1.83008C14.3021 1.83008 14.8815 1.77148 15.3242 1.6543C15.7669 1.53711 16.125 1.47852 16.3984 1.47852C16.7305 1.47852 17.0039 1.57617 17.2188 1.77148C17.4336 1.9668 17.541 2.22396 17.541 2.54297V11.6836C17.541 12.1133 17.4499 12.4714 17.2676 12.7578C17.0853 13.0378 16.8281 13.2559 16.4961 13.4121C16.138 13.5749 15.7539 13.7018 15.3438 13.793C14.9336 13.8841 14.3737 13.9297 13.6641 13.9297C12.8568 13.9297 12.0918 13.8451 11.3691 13.6758C10.653 13.5 9.94987 13.3014 9.25977 13.0801C8.56966 12.8587 7.86003 12.6634 7.13086 12.4941C6.40169 12.3249 5.62044 12.2402 4.78711 12.2402C4.22721 12.2402 3.76497 12.2891 3.40039 12.3867C3.03581 12.4779 2.78516 12.5462 2.64844 12.5918V17.6113C2.64844 17.8717 2.55729 18.0898 2.375 18.2656C2.19922 18.4414 1.98763 18.5293 1.74023 18.5293ZM13.6152 12.0645C14.2142 12.0645 14.6829 11.9993 15.0215 11.8691C15.36 11.7324 15.5716 11.6022 15.6562 11.4785V3.43164C15.3893 3.50977 15.0736 3.57161 14.709 3.61719C14.3509 3.65625 13.9603 3.67578 13.5371 3.67578C12.7038 3.67578 11.9193 3.59115 11.1836 3.42188C10.4544 3.2526 9.74479 3.06055 9.05469 2.8457C8.36458 2.62435 7.66471 2.42904 6.95508 2.25977C6.25195 2.09049 5.50977 2.00586 4.72852 2.00586C4.13607 2.00586 3.67057 2.07096 3.33203 2.20117C3 2.33138 2.79167 2.46159 2.70703 2.5918V10.668C2.94141 10.5703 3.24414 10.4987 3.61523 10.4531C3.99284 10.4076 4.39648 10.3848 4.82617 10.3848C5.69206 10.3848 6.49935 10.4694 7.24805 10.6387C7.99674 10.8079 8.71615 11.0033 9.40625 11.2246C10.0964 11.446 10.7865 11.6413 11.4766 11.8105C12.1667 11.9798 12.8796 12.0645 13.6152 12.0645Z" fill="#0084FF"/>
</svg>
