<svg width="25" height="25" viewBox="0 0 25 25" fill="none" xmlns="http://www.w3.org/2000/svg">
<path d="M2.94273 12.5L11.1459 20.7031C11.3368 20.8941 11.4323 21.1328 11.4323 21.4193C11.4323 21.7057 11.3368 21.9531 11.1459 22.1615C10.9375 22.3698 10.6901 22.474 10.4037 22.474C10.1172 22.474 9.86981 22.3698 9.66148 22.1615L1.09377 13.5938C0.93752 13.4375 0.824673 13.2639 0.755229 13.0729C0.685784 12.882 0.651062 12.691 0.651062 12.5C0.651062 12.309 0.685784 12.1181 0.755229 11.9271C0.824673 11.7361 0.93752 11.5625 1.09377 11.4063L9.68752 2.81251C9.89585 2.60418 10.1389 2.50435 10.4167 2.51303C10.6945 2.52171 10.9375 2.63022 11.1459 2.83855C11.3368 3.04689 11.4367 3.28994 11.4453 3.56772C11.454 3.8455 11.3542 4.08855 11.1459 4.29689L2.94273 12.5Z" fill="black"/>
</svg>
