<svg width="10" height="17" viewBox="0 0 10 17" fill="none" xmlns="http://www.w3.org/2000/svg">
<path opacity="1" d="M9.7832 8.33008C9.7832 8.19336 9.75716 8.06641 9.70508 7.94922C9.65299 7.82552 9.57161 7.71159 9.46094 7.60742L2.20508 0.507812C2.02279 0.31901 1.79818 0.224609 1.53125 0.224609C1.34245 0.224609 1.17643 0.266927 1.0332 0.351562C0.889974 0.436198 0.772786 0.55013 0.681641 0.693359C0.597005 0.836589 0.554688 1.0026 0.554688 1.19141C0.554688 1.45182 0.652344 1.67969 0.847656 1.875L7.44922 8.33008L0.847656 14.7852C0.652344 14.9805 0.554688 15.2083 0.554688 15.4688C0.554688 15.651 0.597005 15.8138 0.681641 15.957C0.772786 16.1068 0.889974 16.224 1.0332 16.3086C1.17643 16.3932 1.34245 16.4355 1.53125 16.4355C1.79818 16.4355 2.02279 16.3411 2.20508 16.1523L9.46094 9.05273C9.57161 8.94857 9.65299 8.83789 9.70508 8.7207C9.75716 8.59701 9.7832 8.4668 9.7832 8.33008Z" fill="black"/>
</svg>
