<svg width="22" height="22" viewBox="0 0 22 22" fill="none" xmlns="http://www.w3.org/2000/svg">
<g clip-path="url(#clip0_158_332)">
<path d="M17.4167 1.83333H16.5V0.916667C16.5 0.410667 16.0903 0 15.5833 0C15.0764 0 14.6667 0.410667 14.6667 0.916667V1.83333H7.33333V0.916667C7.33333 0.410667 6.92358 0 6.41667 0C5.90975 0 5.5 0.410667 5.5 0.916667V1.83333H4.58333C2.05608 1.83333 0 3.88942 0 6.41667V17.4167C0 19.9439 2.05608 22 4.58333 22H17.4167C19.9439 22 22 19.9439 22 17.4167V6.41667C22 3.88942 19.9439 1.83333 17.4167 1.83333ZM4.58333 3.66667H17.4167C18.9328 3.66667 20.1667 4.9005 20.1667 6.41667V7.33333H1.83333V6.41667C1.83333 4.9005 3.06717 3.66667 4.58333 3.66667ZM17.4167 20.1667H4.58333C3.06717 20.1667 1.83333 18.9328 1.83333 17.4167V9.16667H20.1667V17.4167C20.1667 18.9328 18.9328 20.1667 17.4167 20.1667ZM17.4167 12.8333C17.4167 13.3393 17.0069 13.75 16.5 13.75H5.5C4.99308 13.75 4.58333 13.3393 4.58333 12.8333C4.58333 12.3273 4.99308 11.9167 5.5 11.9167H16.5C17.0069 11.9167 17.4167 12.3273 17.4167 12.8333ZM11 16.5C11 17.006 10.5903 17.4167 10.0833 17.4167H5.5C4.99308 17.4167 4.58333 17.006 4.58333 16.5C4.58333 15.994 4.99308 15.5833 5.5 15.5833H10.0833C10.5903 15.5833 11 15.994 11 16.5Z" fill="black" fill-opacity="0.7"/>
</g>
<defs>
<clipPath id="clip0_158_332">
<rect width="22" height="22" fill="white"/>
</clipPath>
</defs>
</svg>
