<svg width="38" height="38" viewBox="0 0 38 38" fill="none" xmlns="http://www.w3.org/2000/svg">
<path d="M19 20.6625L10.6875 28.975C10.45 29.2125 10.1729 29.3313 9.85626 29.3313C9.5396 29.3313 9.26251 29.2125 9.02501 28.975C8.78751 28.7375 8.66876 28.4604 8.66876 28.1438C8.66876 27.8271 8.78751 27.55 9.02501 27.3125L17.3375 19L9.02501 10.6875C8.78751 10.45 8.66876 10.1729 8.66876 9.85626C8.66876 9.5396 8.78751 9.26251 9.02501 9.02501C9.26251 8.78751 9.5396 8.66876 9.85626 8.66876C10.1729 8.66876 10.45 8.78751 10.6875 9.02501L19 17.3375L27.3125 9.02501C27.55 8.78751 27.8271 8.66876 28.1438 8.66876C28.4604 8.66876 28.7375 8.78751 28.975 9.02501C29.2125 9.26251 29.3313 9.5396 29.3313 9.85626C29.3313 10.1729 29.2125 10.45 28.975 10.6875L20.6625 19L28.975 27.3125C29.2125 27.55 29.3313 27.8271 29.3313 28.1438C29.3313 28.4604 29.2125 28.7375 28.975 28.975C28.7375 29.2125 28.4604 29.3313 28.1438 29.3313C27.8271 29.3313 27.55 29.2125 27.3125 28.975L19 20.6625Z" fill="black"/>
</svg>
