<svg width="17" height="17" viewBox="0 0 17 17" fill="none" xmlns="http://www.w3.org/2000/svg">
<path d="M0.357357 16.1161C0.514909 16.2737 0.701107 16.3775 0.915951 16.4277C1.13079 16.485 1.34206 16.485 1.54974 16.4277C1.76458 16.3775 1.95078 16.2773 2.10833 16.1269L8.24212 9.98236L14.3867 16.1269C14.6158 16.3561 14.9023 16.4706 15.246 16.4706C15.5898 16.4778 15.8834 16.3596 16.1269 16.1161C16.3632 15.8727 16.4814 15.579 16.4814 15.2353C16.4814 14.8915 16.3668 14.6051 16.1376 14.3759L9.9931 8.23138L16.1376 2.09759C16.3668 1.86842 16.4814 1.58197 16.4814 1.23822C16.4885 0.887305 16.3704 0.593685 16.1269 0.357357C15.8834 0.121029 15.5898 0.00286458 15.246 0.00286458C14.9023 0.00286458 14.6158 0.117448 14.3867 0.346615L8.24212 6.49115L2.10833 0.346615C1.95078 0.196224 1.76458 0.0959635 1.54974 0.0458333C1.34206 -0.0114583 1.13079 -0.0150391 0.915951 0.0350911C0.701107 0.0852214 0.514909 0.192643 0.357357 0.357357C0.206966 0.514909 0.103125 0.701107 0.0458333 0.915951C-0.00429687 1.13079 -0.00429687 1.34564 0.0458333 1.56048C0.103125 1.76816 0.206966 1.9472 0.357357 2.09759L6.49115 8.23138L0.357357 14.3759C0.206966 14.5263 0.103125 14.7089 0.0458333 14.9238C-0.0114583 15.1314 -0.0150391 15.3427 0.0350911 15.5576C0.0923828 15.7796 0.199805 15.9658 0.357357 16.1161Z" fill="black"/>
</svg>
