<svg width="19" height="19" viewBox="0 0 19 19" fill="none" xmlns="http://www.w3.org/2000/svg">
<path d="M16.625 9.50016L7.125 9.50016M16.625 4.75016L7.125 4.75016M16.625 14.2502L7.125 14.2502M3.95833 9.50016C3.95833 9.93739 3.60389 10.2918 3.16667 10.2918C2.72944 10.2918 2.375 9.93739 2.375 9.50016C2.375 9.06294 2.72944 8.7085 3.16667 8.7085C3.60389 8.7085 3.95833 9.06294 3.95833 9.50016ZM3.95833 4.75016C3.95833 5.18739 3.60389 5.54183 3.16667 5.54183C2.72944 5.54183 2.375 5.18739 2.375 4.75016C2.375 4.31294 2.72944 3.9585 3.16667 3.9585C3.60389 3.9585 3.95833 4.31294 3.95833 4.75016ZM3.95833 14.2502C3.95833 14.6874 3.60389 15.0418 3.16667 15.0418C2.72944 15.0418 2.375 14.6874 2.375 14.2502C2.375 13.8129 2.72944 13.4585 3.16667 13.4585C3.60389 13.4585 3.95833 13.8129 3.95833 14.2502Z" stroke="white" stroke-width="1.5" stroke-linecap="round" stroke-linejoin="round"/>
</svg>
