<svg width="35" height="35" viewBox="0 0 35 35" fill="none" xmlns="http://www.w3.org/2000/svg">
<path d="M7.57816 19.25C7.0955 19.25 6.68403 19.0781 6.34375 18.7344C6.00347 18.3907 5.83334 17.9775 5.83334 17.4948C5.83334 17.0122 6.0052 16.6007 6.34893 16.2604C6.69263 15.9201 7.10583 15.75 7.58851 15.75C8.07117 15.75 8.48264 15.9219 8.82292 16.2656C9.1632 16.6093 9.33334 17.0225 9.33334 17.5052C9.33334 17.9878 9.16147 18.3993 8.81774 18.7396C8.47404 19.0799 8.06084 19.25 7.57816 19.25ZM17.4948 19.25C17.0122 19.25 16.6007 19.0781 16.2604 18.7344C15.9201 18.3907 15.75 17.9775 15.75 17.4948C15.75 17.0122 15.9219 16.6007 16.2656 16.2604C16.6093 15.9201 17.0225 15.75 17.5052 15.75C17.9878 15.75 18.3993 15.9219 18.7396 16.2656C19.0799 16.6093 19.25 17.0225 19.25 17.5052C19.25 17.9878 19.0781 18.3993 18.7344 18.7396C18.3907 19.0799 17.9775 19.25 17.4948 19.25ZM27.4115 19.25C26.9288 19.25 26.5174 19.0781 26.1771 18.7344C25.8368 18.3907 25.6667 17.9775 25.6667 17.4948C25.6667 17.0122 25.8385 16.6007 26.1823 16.2604C26.526 15.9201 26.9392 15.75 27.4218 15.75C27.9045 15.75 28.316 15.9219 28.6563 16.2656C28.9965 16.6093 29.1667 17.0225 29.1667 17.5052C29.1667 17.9878 28.9948 18.3993 28.6511 18.7396C28.3074 19.0799 27.8942 19.25 27.4115 19.25Z" fill="black"/>
</svg>
