<svg width="19" height="19" viewBox="0 0 19 19" fill="none" xmlns="http://www.w3.org/2000/svg">
<g clip-path="url(#clip0_3806_37663)">
<path d="M9.49967 1.5835C10.5393 1.5835 11.5688 1.78827 12.5293 2.18612C13.4897 2.58397 14.3625 3.1671 15.0976 3.90224C15.8327 4.63737 16.4159 5.51009 16.8137 6.47059C17.2116 7.43108 17.4163 8.46054 17.4163 9.50017M9.49967 1.5835V9.50016M9.49967 1.5835C5.12742 1.5835 1.58301 5.12791 1.58301 9.50016C1.58301 13.8724 5.12742 17.4168 9.49967 17.4168C13.8719 17.4168 17.4163 13.8724 17.4163 9.50017M9.49967 1.5835C13.8719 1.5835 17.4163 5.12791 17.4163 9.50017M17.4163 9.50017L9.49967 9.50016M17.4163 9.50017C17.4163 10.7495 17.1207 11.9811 16.5535 13.0943C15.9863 14.2074 15.1637 15.1705 14.153 15.9049L9.49967 9.50016" stroke="white" stroke-width="1.5" stroke-linecap="round" stroke-linejoin="round"/>
</g>
<defs>
<clipPath id="clip0_3806_37663">
<rect width="19" height="19" fill="white"/>
</clipPath>
</defs>
</svg>
