<svg width="32" height="16" viewBox="0 0 32 16" fill="none" xmlns="http://www.w3.org/2000/svg">
<path d="M30.6667 2.66694C29.9294 2.66694 29.3334 3.26293 29.3334 4.00025V11.4481L20.5828 2.69894C18.7908 0.906981 15.8748 0.906981 14.0829 2.69894L10.6469 6.13487C9.9229 6.85886 8.74291 6.85886 8.01892 6.13487L2.27631 0.390992C1.75498 -0.130331 0.912324 -0.130331 0.390996 0.390992C-0.130332 0.912314 -0.130332 1.75496 0.390996 2.27629L6.13494 8.02017C7.89758 9.7828 10.7709 9.7828 12.5335 8.02017L15.9695 4.58424C16.7215 3.83225 17.9455 3.83225 18.6988 4.58424L27.448 13.3334H20.0001C19.2628 13.3334 18.6668 13.9294 18.6668 14.6667C18.6668 15.404 19.2628 16 20.0001 16H28C30.2054 16 32 14.2054 32 12.0001V4.00025C32 3.26293 31.404 2.66694 30.6667 2.66694Z" fill="#61B84B"/>
</svg>
