<svg width="24" height="24" viewBox="0 0 24 24" fill="none" xmlns="http://www.w3.org/2000/svg">
<path d="M5.59375 24C5.15547 24 4.78027 23.8391 4.46816 23.5174C4.15605 23.1957 4 22.8089 4 22.3571V10.4738C4 10.022 4.15605 9.63527 4.46816 9.31354C4.78027 8.99182 5.15547 8.83095 5.59375 8.83095H7.45312V6.20238C7.45312 4.76306 7.94547 3.53616 8.93016 2.5217C9.91485 1.50723 11.1057 1 12.5028 1C13.8999 1 15.0898 1.50723 16.0727 2.5217C17.0555 3.53616 17.5469 4.76306 17.5469 6.20238V8.83095H19.4062C19.8445 8.83095 20.2197 8.99182 20.5318 9.31354C20.8439 9.63527 21 10.022 21 10.4738V22.3571C21 22.8089 20.8439 23.1957 20.5318 23.5174C20.2197 23.8391 19.8445 24 19.4062 24H5.59375ZM5.59375 22.3571H19.4062V10.4738H5.59375V22.3571ZM12.5045 18.5238C13.0682 18.5238 13.5492 18.3227 13.9477 17.9206C14.3461 17.5184 14.5453 17.035 14.5453 16.4702C14.5453 15.9226 14.3446 15.4252 13.9432 14.978C13.5418 14.5308 13.0592 14.3071 12.4955 14.3071C11.9318 14.3071 11.4508 14.5308 11.0523 14.978C10.6539 15.4252 10.4547 15.9272 10.4547 16.4839C10.4547 17.0407 10.6554 17.5198 11.0568 17.9214C11.4582 18.323 11.9408 18.5238 12.5045 18.5238ZM9.04688 8.83095H15.9531V6.20238C15.9531 5.21362 15.6177 4.37318 14.9469 3.68106C14.276 2.98892 13.4615 2.64286 12.5031 2.64286C11.5448 2.64286 10.7292 2.98892 10.0563 3.68106C9.38333 4.37318 9.04688 5.21362 9.04688 6.20238V8.83095Z" fill="#0084FF"/>
</svg>
