<svg width="18" height="18" viewBox="0 0 18 18" fill="none" xmlns="http://www.w3.org/2000/svg">
<path d="M1.5 14.2502V13.1064H16.5V14.2502H1.5ZM2.2125 9.4877L1.4625 9.0752L2.2125 7.8002H0.75V6.95645H2.2125L1.4625 5.68145L2.2125 5.26895L2.925 6.5252L3.6375 5.26895L4.3875 5.68145L3.6375 6.95645H5.1V7.8002H3.6375L4.3875 9.0752L3.6375 9.4877L2.925 8.23145L2.2125 9.4877ZM8.2875 9.4877L7.5375 9.0377L8.2875 7.7627H6.825V6.91895H8.2875L7.5375 5.64395L8.2875 5.23145L9 6.4877L9.7125 5.23145L10.4625 5.64395L9.7125 6.91895H11.175V7.7627H9.7125L10.4625 9.0377L9.7125 9.4877L9 8.23145L8.2875 9.4877ZM14.3625 9.4877L13.6125 9.0377L14.3625 7.7627H12.9V6.91895H14.3625L13.6125 5.64395L14.3625 5.23145L15.075 6.4877L15.7875 5.23145L16.5375 5.64395L15.7875 6.91895H17.25V7.7627H15.7875L16.5375 9.0377L15.7875 9.4877L15.075 8.23145L14.3625 9.4877Z" fill="#0084FF"/>
</svg>
